<svg xmlns="http://www.w3.org/2000/svg" xmlns:xlink="http://www.w3.org/1999/xlink" width="20" height="20" viewBox="0 0 20 20" fill="none"><g opacity="1"  transform="translate(1 1)"><path  id="路径 1" style="fill:#333333; opacity:1;" d="M1.5 17L16.5 17C16.7761 17 17 16.7761 17 16.5L17 1.5C17 1.22386 16.7761 1 16.5 1L1.5 1C1.22386 1 1 1.22386 1 1.5L1 16.5C1 16.7761 1.22386 17 1.5 17ZM1.5 19C0.119288 19 -1 17.8807 -1 16.5L-1 1.5C-1 0.119288 0.119288 -1 1.5 -1L16.5 -1C17.8807 -1 19 0.119288 19 1.5L19 16.5C19 17.8807 17.8807 19 16.5 19L1.5 19Z"></path><path  id="路径 2" style="fill:#333333; opacity:1;" d="M2.5 12.5L2.5 5.5C2.5 4.94772 2.94772 4.5 3.5 4.5L7.5 4.5Q7.59849 4.5 7.69509 4.51921Q7.79169 4.53843 7.88268 4.57612Q7.97368 4.61381 8.05557 4.66853Q8.13746 4.72325 8.20711 4.79289Q8.27675 4.86254 8.33147 4.94443Q8.38619 5.02632 8.42388 5.11732Q8.46157 5.20831 8.48079 5.30491Q8.5 5.40151 8.5 5.5Q8.5 5.59849 8.48079 5.69509Q8.46157 5.79169 8.42388 5.88268Q8.38619 5.97368 8.33147 6.05557Q8.27675 6.13746 8.20711 6.20711Q8.13746 6.27675 8.05557 6.33147Q7.97368 6.38619 7.88268 6.42388Q7.79169 6.46157 7.69509 6.48078Q7.59849 6.5 7.5 6.5L3.5 6.5L3.5 5.5L4.5 5.5L4.5 12.5Q4.5 12.5985 4.48079 12.6951Q4.46157 12.7917 4.42388 12.8827Q4.38619 12.9737 4.33147 13.0556Q4.27675 13.1375 4.20711 13.2071Q4.13746 13.2767 4.05557 13.3315Q3.97368 13.3862 3.88268 13.4239Q3.79169 13.4616 3.69509 13.4808Q3.59849 13.5 3.5 13.5Q3.40151 13.5 3.30491 13.4808Q3.20831 13.4616 3.11732 13.4239Q3.02632 13.3862 2.94443 13.3315Q2.86254 13.2767 2.79289 13.2071Q2.72325 13.1375 2.66853 13.0556Q2.61381 12.9737 2.57612 12.8827Q2.53843 12.7917 2.51921 12.6951Q2.5 12.5985 2.5 12.5Z"></path><path  id="路径 3" style="fill:#333333; opacity:1;" d="M3.5 8L7.25 8Q7.34849 8 7.44509 8.01921Q7.54169 8.03843 7.63268 8.07612Q7.72368 8.11381 7.80557 8.16853Q7.88746 8.22325 7.95711 8.29289Q8.02675 8.36254 8.08147 8.44443Q8.13619 8.52632 8.17388 8.61732Q8.21157 8.70831 8.23079 8.80491Q8.25 8.90151 8.25 9Q8.25 9.09849 8.23079 9.19509Q8.21157 9.29169 8.17388 9.38268Q8.13619 9.47368 8.08147 9.55557Q8.02675 9.63746 7.95711 9.70711Q7.88746 9.77675 7.80557 9.83147Q7.72368 9.88619 7.63268 9.92388Q7.54169 9.96157 7.44509 9.98079Q7.34849 10 7.25 10L3.5 10Q3.40151 10 3.30491 9.98079Q3.20831 9.96157 3.11732 9.92388Q3.02632 9.88619 2.94443 9.83147Q2.86254 9.77675 2.79289 9.70711Q2.72325 9.63746 2.66853 9.55557Q2.61381 9.47368 2.57612 9.38268Q2.53843 9.29169 2.51921 9.19509Q2.5 9.09849 2.5 9Q2.5 8.90151 2.51921 8.80491Q2.53843 8.70831 2.57612 8.61732Q2.61381 8.52632 2.66853 8.44443Q2.72325 8.36254 2.79289 8.29289Q2.86254 8.22325 2.94443 8.16853Q3.02632 8.11381 3.11732 8.07612Q3.20831 8.03843 3.30491 8.01921Q3.40151 8 3.5 8Z"></path><path  id="路径 4" style="fill:#333333; opacity:1;" d="M3.5 11.5L7.25 11.5Q7.34849 11.5 7.44509 11.5192Q7.54169 11.5384 7.63268 11.5761Q7.72368 11.6138 7.80557 11.6685Q7.88746 11.7232 7.95711 11.7929Q8.02675 11.8625 8.08147 11.9444Q8.13619 12.0263 8.17388 12.1173Q8.21157 12.2083 8.23079 12.3049Q8.25 12.4015 8.25 12.5Q8.25 12.5985 8.23079 12.6951Q8.21157 12.7917 8.17388 12.8827Q8.13619 12.9737 8.08147 13.0556Q8.02675 13.1375 7.95711 13.2071Q7.88746 13.2767 7.80557 13.3315Q7.72368 13.3862 7.63268 13.4239Q7.54169 13.4616 7.44509 13.4808Q7.34849 13.5 7.25 13.5L3.5 13.5Q3.40151 13.5 3.30491 13.4808Q3.20831 13.4616 3.11732 13.4239Q3.02632 13.3862 2.94443 13.3315Q2.86254 13.2767 2.79289 13.2071Q2.72325 13.1375 2.66853 13.0556Q2.61381 12.9737 2.57612 12.8827Q2.53843 12.7917 2.51921 12.6951Q2.5 12.5985 2.5 12.5Q2.5 12.4015 2.51921 12.3049Q2.53843 12.2083 2.57612 12.1173Q2.61381 12.0263 2.66853 11.9444Q2.72325 11.8625 2.79289 11.7929Q2.86254 11.7232 2.94443 11.6685Q3.02632 11.6138 3.11732 11.5761Q3.20831 11.5384 3.30491 11.5192Q3.40151 11.5 3.5 11.5Z"></path><path  id="路径 5" style="fill:#333333; opacity:1;" d="M9 12.5L9 6.5Q9 6.40151 9.01921 6.30491Q9.03843 6.20831 9.07612 6.11732Q9.11381 6.02632 9.16853 5.94443Q9.22325 5.86254 9.29289 5.79289Q9.36254 5.72325 9.44443 5.66853Q9.52632 5.61381 9.61732 5.57612Q9.70831 5.53843 9.80491 5.51921Q9.90151 5.5 10 5.5Q10.0985 5.5 10.1951 5.51921Q10.2917 5.53843 10.3827 5.57612Q10.4737 5.61381 10.5556 5.66853Q10.6375 5.72325 10.7071 5.79289Q10.7767 5.86254 10.8315 5.94443Q10.8862 6.02632 10.9239 6.11732Q10.9616 6.20831 10.9808 6.30491Q11 6.40151 11 6.5L11 12.5Q11 12.5985 10.9808 12.6951Q10.9616 12.7917 10.9239 12.8827Q10.8862 12.9737 10.8315 13.0556Q10.7767 13.1375 10.7071 13.2071Q10.6375 13.2767 10.5556 13.3315Q10.4737 13.3862 10.3827 13.4239Q10.2917 13.4616 10.1951 13.4808Q10.0985 13.5 10 13.5Q9.90151 13.5 9.80491 13.4808Q9.70831 13.4616 9.61732 13.4239Q9.52632 13.3862 9.44443 13.3315Q9.36254 13.2767 9.29289 13.2071Q9.22325 13.1375 9.16853 13.0556Q9.11381 12.9737 9.07612 12.8827Q9.03843 12.7917 9.01921 12.6951Q9 12.5985 9 12.5Z"></path><path  id="路径 6" style="fill:#333333; opacity:1;" d="M13.25 7L13.25 7Q13.25 7.09849 13.2308 7.19509Q13.2116 7.29169 13.1739 7.38268Q13.1362 7.47368 13.0815 7.55557Q13.0267 7.63746 12.9571 7.70711Q12.8875 7.77675 12.8056 7.83147Q12.7237 7.88619 12.6327 7.92388Q12.5417 7.96157 12.4451 7.98078Q12.3485 8 12.25 8Q12.1515 8 12.0549 7.98078Q11.9583 7.96157 11.8673 7.92388Q11.7763 7.88619 11.6944 7.83147Q11.6125 7.77675 11.5429 7.70711Q11.4732 7.63746 11.4185 7.55557Q11.3638 7.47368 11.3261 7.38268Q11.2884 7.29169 11.2692 7.19509Q11.25 7.09849 11.25 7L11.25 7Q11.25 6.90151 11.2692 6.80491Q11.2884 6.70831 11.3261 6.61732Q11.3638 6.52632 11.4185 6.44443Q11.4732 6.36254 11.5429 6.29289Q11.6125 6.22325 11.6944 6.16853Q11.7763 6.11381 11.8673 6.07612Q11.9583 6.03843 12.0549 6.01921Q12.1515 6 12.25 6Q12.3485 6 12.4451 6.01921Q12.5417 6.03843 12.6327 6.07612Q12.7237 6.11381 12.8056 6.16853Q12.8875 6.22325 12.9571 6.29289Q13.0267 6.36254 13.0815 6.44443Q13.1362 6.52632 13.1739 6.61732Q13.2116 6.70831 13.2308 6.80491Q13.25 6.90151 13.25 7ZM9 12.5L9 9.25C9 7.45507 10.4551 6 12.25 6Q12.3485 6 12.4451 6.01921Q12.5417 6.03843 12.6327 6.07612Q12.7237 6.11381 12.8056 6.16853Q12.8875 6.22325 12.9571 6.29289Q13.0267 6.36254 13.0815 6.44443Q13.1362 6.52632 13.1739 6.61732Q13.2116 6.70831 13.2308 6.80491Q13.25 6.90151 13.25 7Q13.25 7.09849 13.2308 7.19509Q13.2116 7.29169 13.1739 7.38268Q13.1362 7.47368 13.0815 7.55557Q13.0267 7.63746 12.9571 7.70711Q12.8875 7.77675 12.8056 7.83147Q12.7237 7.88619 12.6327 7.92388Q12.5417 7.96157 12.4451 7.98078Q12.3485 8 12.25 8C11.5596 8 11 8.55964 11 9.25L11 12.5Q11 12.5985 10.9808 12.6951Q10.9616 12.7917 10.9239 12.8827Q10.8862 12.9737 10.8315 13.0556Q10.7767 13.1375 10.7071 13.2071Q10.6375 13.2767 10.5556 13.3315Q10.4737 13.3862 10.3827 13.4239Q10.2917 13.4616 10.1951 13.4808Q10.0985 13.5 10 13.5Q9.90151 13.5 9.80491 13.4808Q9.70831 13.4616 9.61732 13.4239Q9.52632 13.3862 9.44443 13.3315Q9.36254 13.2767 9.29289 13.2071Q9.22325 13.1375 9.16853 13.0556Q9.11381 12.9737 9.07612 12.8827Q9.03843 12.7917 9.01921 12.6951Q9 12.5985 9 12.5ZM12.25 6C14.0449 6 15.5 7.45507 15.5 9.25L15.5 12.5Q15.5 12.5985 15.4808 12.6951Q15.4616 12.7917 15.4239 12.8827Q15.3862 12.9737 15.3315 13.0556Q15.2767 13.1375 15.2071 13.2071Q15.1375 13.2767 15.0556 13.3315Q14.9737 13.3862 14.8827 13.4239Q14.7917 13.4616 14.6951 13.4808Q14.5985 13.5 14.5 13.5Q14.4015 13.5 14.3049 13.4808Q14.2083 13.4616 14.1173 13.4239Q14.0263 13.3862 13.9444 13.3315Q13.8625 13.2767 13.7929 13.2071Q13.7232 13.1375 13.6685 13.0556Q13.6138 12.9737 13.5761 12.8827Q13.5384 12.7917 13.5192 12.6951Q13.5 12.5985 13.5 12.5L13.5 9.25C13.5 8.55964 12.9404 8 12.25 8Q12.1515 8 12.0549 7.98078Q11.9583 7.96157 11.8673 7.92388Q11.7763 7.88619 11.6944 7.83147Q11.6125 7.77675 11.5429 7.70711Q11.4732 7.63746 11.4185 7.55557Q11.3638 7.47368 11.3261 7.38268Q11.2884 7.29169 11.2692 7.19509Q11.25 7.09849 11.25 7Q11.25 6.90151 11.2692 6.80491Q11.2884 6.70831 11.3261 6.61732Q11.3638 6.52632 11.4185 6.44443Q11.4732 6.36254 11.5429 6.29289Q11.6125 6.22325 11.6944 6.16853Q11.7763 6.11381 11.8673 6.07612Q11.9583 6.03843 12.0549 6.01921Q12.1515 6 12.25 6Z"></path></g></svg>