<svg xmlns="http://www.w3.org/2000/svg" xmlns:xlink="http://www.w3.org/1999/xlink" width="24" height="24" viewBox="0 0 24 24" fill="none"><g opacity="1"  transform="translate(0 0)"><mask id="bg-mask-0" fill="white"><use transform="translate(0 0)" xlink:href="#path_0"></use></mask><g mask="url(#bg-mask-0)" ><path id="分组 1" fill-rule="evenodd" style="fill:#000000" opacity="1" d="M4.99801 1L4.99801 7L4.85247 9.33333L2.33334 9.33333L2.33334 19.6667L4.20792 19.6667L4.00001 23L23 23L23 4.5L19.5 1L4.99801 1ZM18 1L18 6L23 6L18 1ZM4.29109 18.3333L4.20792 19.6667L12.6667 19.6667L12.6667 17.0787L17.6667 19.5787L17.6667 9.42131L12.6667 11.9213L12.6667 9.33333L4.85247 9.33333L4.7693 10.6667L3.66667 10.6667L3.66667 18.3333L4.29109 18.3333ZM4.7693 10.6667L4.29109 18.3333L11.3333 18.3333L11.3333 16.412L11.7019 16.5963L12.6667 17.0787L12.6667 15.588L16.3333 17.4213L16.3333 11.5787L12.6667 13.412L12.6667 11.9213L11.3333 12.588L11.3333 10.6667L4.7693 10.6667Z"></path></g></g><defs><rect id="path_0" x="0" y="0" width="24" height="24" rx="0" ry="0"/></defs></svg>