<svg xmlns="http://www.w3.org/2000/svg" xmlns:xlink="http://www.w3.org/1999/xlink" width="24" height="24" viewBox="0 0 24 24" fill="none"><g opacity="1"  transform="translate(0 0)"><mask id="bg-mask-0" fill="white"><use transform="translate(0 0)" xlink:href="#path_0"></use></mask><g mask="url(#bg-mask-0)" ><path id="分组 1" fill-rule="evenodd" style="fill:#000000" opacity="1" d="M4.99801 1L4.99801 7L8.12342 10.3333L2.33334 10.3333L2.33334 23.6667L16.6667 23.6667L16.6667 19.4449L20 23L23 23L23 4.5L19.5 1L4.99801 1ZM18 1L23 6L18 6L18 1ZM15.3333 18.0229L16.6667 19.4449L16.6667 10.3333L8.12342 10.3333L9.37359 11.6667L3.66667 11.6667L3.66667 22.3333L5.44445 22.3333L5.00001 23L7.44445 22.3333L15.3333 22.3333L15.3333 20.1818L16 20L15.3333 19.1111L15.3333 18.0229ZM9.07408 21.8889L13 16L15.3333 19.1111L15.3333 20.1818L9.07408 21.8889ZM8.92858 21.9286L9.07408 21.8889L9.00001 22L8.92858 21.9286ZM8.92858 21.9286L7.00001 20L5.44445 22.3333L7.44445 22.3333L8.92858 21.9286ZM15.3333 18.0229L9.37359 11.6667L15.3333 11.6667L15.3333 18.0229ZM8.66667 15C8.66667 15.9205 7.92048 16.6667 7.00001 16.6667C6.07953 16.6667 5.33334 15.9205 5.33334 15C5.33334 14.0795 6.07953 13.3333 7.00001 13.3333C7.92048 13.3333 8.66667 14.0795 8.66667 15ZM7.33334 15C7.33334 14.8159 7.1841 14.6667 7.00001 14.6667C6.81591 14.6667 6.66667 14.8159 6.66667 15C6.66667 15.1841 6.81591 15.3333 7.00001 15.3333C7.1841 15.3333 7.33334 15.1841 7.33334 15Z"></path></g></g><defs><rect id="path_0" x="0" y="0" width="24" height="24" rx="0" ry="0"/></defs></svg>