<svg xmlns="http://www.w3.org/2000/svg" xmlns:xlink="http://www.w3.org/1999/xlink" width="24" height="24" viewBox="0 0 24 24" fill="none"><g opacity="1"  transform="translate(0 0)"><mask id="bg-mask-0" fill="white"><use transform="translate(0 0)" xlink:href="#path_0"></use></mask><g mask="url(#bg-mask-0)" ><path id="分组 1" fill-rule="evenodd" style="fill:#000000" opacity="1" d="M4.99798 9L4.99798 1L18 1L18 6L23 6L23 23L3.99998 23L4.45146 16.6667L4.49998 16.6667Q6.15037 16.6667 6.9034 15.6877Q7.41665 15.0205 7.41665 14Q7.41665 12.9795 6.9034 12.3123Q6.22804 11.4343 4.83091 11.3437L4.99798 9ZM4.7361 12.6737L4.83091 11.3437Q4.67022 11.3333 4.49998 11.3333L2.33332 11.3333L2.33332 18.6667L3.91665 18.6667L3.91665 16.6667L4.45146 16.6667L4.54653 15.3331Q5.50216 15.3225 5.84657 14.8748Q6.08332 14.567 6.08332 14Q6.08332 13.433 5.84657 13.1252Q5.53748 12.7234 4.7361 12.6737ZM4.7361 12.6737L4.54653 15.3331Q4.52341 15.3333 4.49998 15.3333L3.66665 15.3333L3.66665 12.6667L4.49998 12.6667Q4.62295 12.6667 4.7361 12.6737ZM23 6L23 4.5L19.5 1L18 1L23 6ZM11.2 18.6667L8.83332 18.6667L8.83332 11.3333L11.2 11.3333Q12.4998 11.3333 13.2516 12.0938Q14.1667 13.0195 14.1667 15Q14.1667 16.9805 13.2516 17.9062Q12.4998 18.6667 11.2 18.6667ZM16.5 19L16.5 16L18.2143 16L16.5 19ZM18.7857 15L19.5 15L19.5 16L18.2143 16L18.7857 15ZM18.7857 15L16.5 15L16.5 12L20.5 12L18.7857 15ZM11.2 17.3333Q11.943 17.3333 12.3034 16.9688Q12.8333 16.4327 12.8333 15Q12.8333 13.5673 12.3034 13.0312Q11.943 12.6667 11.2 12.6667L10.1667 12.6667L10.1667 17.3333L11.2 17.3333Z"></path></g></g><defs><rect id="path_0" x="0" y="0" width="24" height="24" rx="0" ry="0"/></defs></svg>